<svg width="180" height="180" viewBox="0 0 180 180" fill="none" xmlns="http://www.w3.org/2000/svg">
<rect width="180" height="180" fill="url(#paint0_linear_18131_126)"/>
<path d="M89.1697 145.5C83.139 145.5 77.9082 144.573 73.4774 142.72C69.0466 140.867 65.662 137.593 63.3236 132.899C61.1082 128.204 60.0005 121.595 60.0005 113.071V106.77C62.9543 106.77 65.9697 106.77 69.0466 106.77C72.1236 106.77 75.1389 106.77 78.0928 106.77V114.553C78.0928 119.742 78.5851 123.757 79.5697 126.598C80.5543 129.44 81.9082 131.416 83.6313 132.528C85.3543 133.516 87.3236 134.011 89.5389 134.011C93.1082 134.011 95.9389 132.837 98.0313 130.49C100.247 128.019 101.354 123.448 101.354 116.777C101.354 111.835 100.616 108.129 99.139 105.658C97.662 103.188 95.3236 101.211 92.1236 99.7285C89.0466 98.1225 85.0466 96.3311 80.1236 94.3545C76.062 92.5014 72.5543 90.3395 69.6005 87.8687C66.6466 85.3979 64.4313 82.2477 62.9543 78.418C61.4774 74.5882 60.7389 69.832 60.7389 64.1492C60.7389 57.231 61.6005 51.6099 63.3236 47.2861C65.1697 42.8387 68.2466 39.6266 72.5543 37.65C76.862 35.5498 82.6466 34.4998 89.9082 34.4998C99.262 34.4998 106.4 36.6617 111.324 40.9856C116.247 45.1859 118.708 51.3629 118.708 59.5164V72.3028C115.877 72.3028 112.985 72.3028 110.031 72.3028C107.2 72.3028 104.308 72.3028 101.354 72.3028V64.7051C101.354 59.0223 100.431 54.9455 98.5851 52.4747C96.862 49.8804 94.0313 48.5832 90.0928 48.5832C86.0313 48.5832 83.0774 49.8186 81.2313 52.2894C79.5082 54.6366 78.6466 58.4046 78.6466 63.5932C78.6466 68.0407 79.5082 71.4998 81.2313 73.9705C82.9543 76.3178 85.1697 78.1709 87.8774 79.5298C90.7082 80.8887 93.6005 82.1241 96.5543 83.236C102.093 85.3362 106.585 87.4981 110.031 89.7218C113.477 91.9455 116 94.9104 117.6 98.6166C119.2 102.323 120 107.573 120 114.368C120 122.151 118.708 128.328 116.124 132.899C113.662 137.346 110.093 140.558 105.416 142.535C100.862 144.511 95.4466 145.5 89.1697 145.5Z" fill="white"/>
<defs>
<linearGradient id="paint0_linear_18131_126" x1="35.5932" y1="5.41209e-05" x2="190.413" y2="19.1599" gradientUnits="userSpaceOnUse">
<stop stop-color="#ED0233"/>
<stop offset="1" stop-color="#003EB7"/>
</linearGradient>
</defs>
</svg>
