<svg xmlns="http://www.w3.org/2000/svg" fill="none" viewBox="0 0 180 180"><path fill="url(#paint0_linear_18131_126)" d="M0 0h180v180h-180z"/><path fill="#fff" d="M89.17 145.5q-9.04 0-15.7-2.78-6.63-2.78-10.15-9.82-3.32-7.04-3.32-19.83v-6.3h18.09v7.78q0 7.79 1.48 12.05t4.06 5.93q2.59 1.48 5.9 1.48 5.36 0 8.5-3.52 3.33-3.7 3.32-13.71 0-7.42-2.21-11.12-2.22-3.7-7.02-5.93a137 137 0 0 0-12-5.38 46 46 0 0 1-10.52-6.48 23 23 0 0 1-6.65-9.45q-2.2-5.75-2.21-14.27 0-10.38 2.58-16.86a17.7 17.7 0 0 1 9.23-9.64q6.47-3.15 17.36-3.15 14.03 0 21.41 6.49 7.4 6.3 7.39 18.53v12.78h-17.36v-7.6q0-8.51-2.76-12.23-2.6-3.89-8.5-3.89-6.09 0-8.86 3.7-2.58 3.53-2.58 11.31 0 6.68 2.58 10.38a18 18 0 0 0 6.65 5.56q4.25 2.04 8.67 3.7 8.3 3.15 13.48 6.5a19.7 19.7 0 0 1 7.57 8.89q2.4 5.55 2.4 15.75 0 11.67-3.88 18.53a21.5 21.5 0 0 1-10.7 9.63q-6.84 2.97-16.25 2.97"/><defs><linearGradient id="paint0_linear_18131_126" x1="35.5932" x2="190.413" y1="5.41209e-05" y2="19.1599" gradientUnits="userSpaceOnUse"><stop stop-color="#ED0233"/><stop offset="1" stop-color="#003EB7"/></linearGradient></defs></svg>